# xmcd
#
# Track frame offsets:
#	150
#	21678
#	38752
#	57813
#	74141
#	83185
#	102154
#	120852
#	139784
#
# Disc length: 2143 seconds
#
# Revision: 1
# Processed by: cddbd v1.5PL3 Copyright (c) Steve Scherf et al.
# Submitted via: CDex 1.50Beta5
#
DISCID=7a085d09
DTITLE=Device High - れっつ☆いんすと〜る
DYEAR=1900
DGENRE=
TTITLE0=も・ど・り・た・い
TTITLE1=白い夢
TTITLE2=Can you see?
TTITLE3=弥勒の花
TTITLE4=にゃんにゃんろっく
TTITLE5=月鏡
TTITLE6=Inside
TTITLE7=れっつ☆いんすと〜る
TTITLE8=片方だけの翼
EXTD=
EXTT0=
EXTT1=
EXTT2=
EXTT3=
EXTT4=
EXTT5=
EXTT6=
EXTT7=
EXTT8=
PLAYORDER=
